# xmcd
#
# Track frame offsets:
#	150
#	16730
#	43697
#	61044
#	81647
#	104356
#	132597
#	171188
#	211635
#	236739
#	266596
#	286741
#	313898
#	334185
#
# Disc length: 4716 seconds
#
# Revision: 0
# Processed by: cddbd v1.4PL0 Copyright (c) Steve Scherf et al.
# Submitted via: EasyCDDAExtractor 4.6.9.1
#
DISCID=c7126a0e
DTITLE=Eric Clapton - One More Car One More Rider
DYEAR=2002
DGENRE=Ballad
TTITLE0=Key To The Highway
TTITLE1=Reptile
TTITLE2=Got You On My Mind
TTITLE3=Tears In Heaven
TTITLE4=Bell Bottom Blues
TTITLE5=Change The World
TTITLE6=Father's Eyes
TTITLE7=River Of Tears
TTITLE8=Going Down Slow
TTITLE9=She's Gone
TTITLE10=I Want a Little Girl
TTITLE11=Badge
TTITLE12=Hootchie Coochie Man
TTITLE13=Cocaine
EXTD=
EXTT0=
EXTT1=
EXTT2=
EXTT3=
EXTT4=
EXTT5=
EXTT6=
EXTT7=
EXTT8=
EXTT9=
EXTT10=
EXTT11=
EXTT12=
EXTT13=
PLAYORDER=
